#!OML:ASF H:\Terrain\Patient Classification 1\Animal2\Wednesday\Animal2.ASF
:FULLY-SPECIFIED
:DEGREES
1539
root 18.4059 16.9677 7.90392 27.2476 69.6865 3.74736
lowerback 17.7897 -0.518189 0.298299
upperback -10.3924 -0.677571 -0.878612
thorax -22.2135 -0.374082 -0.962945
lowerneck 9.53134 7.82093 15.907
upperneck -33.162 9.65069 -21.5348
head -9.81146 5.67306 -11.9459
rclavicle 2.95444e-014 1.69961e-014
rhumerus -35.9294 3.30608 -76.9377
rradius 111.118
rwrist -19.5551
rhand -8.47278 26.2021
rfingers 7.12502
rthumb 17.4539 -3.03434
lclavicle 2.95444e-014 1.69961e-014
lhumerus -48.2119 10.4046 54.8807
lradius 81.3945
lwrist 68.2522
lhand -30.4927 30.0086
lfingers 7.12502
lthumb -3.79327 59.9546
rfemur -49.376 -0.389727 14.8732
rtibia 54.4654
rfoot -28.3293 -2.21544
rtoes 26.536
lfemur -51.9413 -9.04579 -3.26042
ltibia 44.5809
lfoot -20.15 -8.0247
ltoes -27.6284
1540
root 18.3804 16.9478 7.89538 27.196 69.6571 3.46037
lowerback 17.8125 -0.575285 0.24589
upperback -10.2066 -0.762988 -0.796737
thorax -21.9755 -0.394955 -0.804267
lowerneck 9.49492 7.90461 16.0642
upperneck -33.6573 9.72598 -21.8659
head -9.92678 5.73264 -12.1737
rclavicle 5.50634e-014 -3.49861e-014
rhumerus -36.418 3.01016 -77.851
rradius 108.988
rwrist -18.6344
rhand -8.79925 25.6136
rfingers 7.12502
rthumb 17.1397 -3.6504
lclavicle 5.50634e-014 -3.49861e-014
lhumerus -48.8508 10.8758 55.1574
lradius 79.0007
lwrist 69.0232
lhand -30.8892 31.142
lfingers 7.12502
lthumb -4.17614 61.0808
rfemur -49.8654 -0.476226 15.014
rtibia 54.8637
rfoot -28.3861 -2.14582
rtoes 26.1313
lfemur -52.465 -8.97731 -3.0252
ltibia 44.9343
lfoot -20.1778 -7.86818
ltoes -27.7607
1541
root 18.3569 16.9263 7.88684 27.6028 69.6282 3.58363
lowerback 17.7626 -0.610223 0.00648744
upperback -10.049 -0.854346 -0.645146
thorax -21.7239 -0.383151 -0.457933
lowerneck 9.28924 8.02736 15.9272
upperneck -33.9376 9.78078 -22.1639
head -9.95491 5.81391 -12.2896
rclavicle 2.87741e-014 -4.27387e-015
rhumerus -36.7811 2.88533 -78.4618
rradius 106.594
rwrist -17.8371
rhand -8.98192 25.069
rfingers 7.12502
rthumb 16.9638 -4.21017
lclavicle 2.87741e-014 -4.27387e-015
lhumerus -49.4833 11.4135 55.6557
lradius 76.7635
lwrist 70.1044
lhand -32.1893 32.6243
lfingers 7.12502
lthumb -5.43154 62.5347
rfemur -50.5361 -0.624777 15.0072
rtibia 55.2868
rfoot -28.4088 -1.95679
rtoes 26.762
lfemur -53.0452 -8.9549 -2.93369
ltibia 45.2188
lfoot -20.2193 -7.74216
ltoes -27.5756
1542
root 18.3286 16.9082 7.8798 28.0925 69.7896 3.91041
lowerback 18.1838 -0.723316 0.277067
upperback -10.0882 -0.992499 -0.918713
thorax -22.0667 -0.511887 -0.874888
lowerneck 9.31773 8.00628 15.9625
upperneck -34.2214 9.80336 -22.0144
head -10.0754 5.79941 -12.2843
rclavicle -6.66426e-014 -2.48481e-014
rhumerus -37.66 2.43114 -79.501
rradius 104.098
rwrist -17.0232
rhand -9.74001 24.086
rfingers 7.12502
rthumb 16.234 -5.2543
lclavicle -6.66426e-014 -2.48481e-014
lhumerus -50.067 11.1732 55.716
lradius 74.6983
lwrist 71.4256
lhand -33.6254 34.3692
lfingers 7.12502
lthumb -6.81792 64.2395
rfemur -51.0956 -0.889697 14.991
rtibia 55.7062
rfoot -28.5725 -1.83678
rtoes 27.2598
lfemur -53.5827 -9.20657 -2.79737
ltibia 45.4719
lfoot -20.2615 -7.57897
ltoes -27.3145
1543
root 18.3056 16.8848 7.85474 29.8403 70.8094 5.47599
lowerback 18.5838 -1.2242 1.10082
upperback -10.1924 -1.53492 -1.32738
thorax -22.5307 -0.911313 -1.61518
lowerneck 9.447 7.95631 16.1656
upperneck -34.5192 9.84638 -21.8182
head -10.2118 5.76742 -12.3015
rclavicle -1.22253e-014 -2.52457e-014
rhumerus -38.5879 2.1028 -80.6234
rradius 101.552
rwrist -16.1811
rhand -11.4055 22.8268
rfingers 7.12502
rthumb 14.6298 -6.63714
lclavicle -1.22253e-014 -2.52457e-014
lhumerus -50.6861 10.6791 55.6433
lradius 72.6699
lwrist 73.1467
lhand -34.1691 36.5694
lfingers 7.12502
lthumb -7.34276 66.422
rfemur -51.4667 -2.03257 14.9045
rtibia 56.0612
rfoot -28.8183 -1.89379
rtoes 26.6352
lfemur -54.6363 -10.2842 -2.61698
ltibia 45.7031
lfoot -20.1218 -7.44884
ltoes -27.6243
